<svg width="280" height="375" viewBox="0 0 280 375" fill="none" xmlns="http://www.w3.org/2000/svg">
<path d="M69.0231 186.199H210.362V247.65H69.0231V186.199Z" fill="white"/>
<path d="M215.278 199.103C215.278 178.894 207.315 159.512 193.14 145.222C178.965 130.932 159.739 122.903 139.693 122.903C119.646 122.903 100.421 130.932 86.2455 145.222C72.0705 159.512 64.107 178.894 64.107 199.103L139.693 199.103H215.278Z" fill="white"/>
<path fill-rule="evenodd" clip-rule="evenodd" d="M140 218.153C183.272 218.153 218.351 183.075 218.351 139.803C218.351 96.5306 183.272 61.4517 140 61.4517C96.7278 61.4517 61.6489 96.5306 61.6489 139.803C61.6489 183.075 96.7278 218.153 140 218.153ZM140 279.605C217.211 279.605 279.802 217.013 279.802 139.803C279.802 62.5917 217.211 0 140 0C62.789 0 0.197266 62.5917 0.197266 139.803C0.197266 217.013 62.789 279.605 140 279.605Z" fill="white"/>
<g clip-path="url(#clip0_101_9057)">
<path d="M255.649 337.668V352.62C255.649 355.629 253.652 357.636 250.656 357.636C247.661 357.636 245.664 355.629 245.664 352.62V337.668H240.504V352.62C240.504 358.024 244.565 362.167 250.656 362.167C256.747 362.167 260.808 358.024 260.808 352.62V337.668H255.649V337.668ZM264.819 361.778H269.978V337.668H264.819V361.778Z" fill="white"/>
<path fill-rule="evenodd" clip-rule="evenodd" d="M267.874 329.349H242.03C237.912 329.349 234.575 332.718 234.575 336.874V362.959C234.575 367.115 237.912 370.484 242.03 370.484H267.874C271.992 370.484 275.329 367.115 275.329 362.959V336.874C275.329 332.718 271.992 329.349 267.874 329.349V329.349ZM242.03 324.834C235.442 324.834 230.102 330.225 230.102 336.874V362.959C230.102 369.608 235.442 374.999 242.03 374.999H267.874C274.462 374.999 279.803 369.608 279.803 362.959V336.874C279.803 330.225 274.462 324.834 267.874 324.834H242.03V324.834Z" fill="white"/>
<path d="M51.3862 362.006H68.4988V369.516H51.3862V362.006Z" fill="white"/>
<path d="M69.0941 363.584C69.0941 361.115 68.1299 358.746 66.4136 357C64.6974 355.253 62.3697 354.272 59.9425 354.272C57.5154 354.272 55.1877 355.253 53.4714 357C51.7552 358.746 50.791 361.115 50.791 363.584H69.0941Z" fill="white"/>
<path fill-rule="evenodd" clip-rule="evenodd" d="M59.9798 365.91C65.219 365.91 69.4662 361.624 69.4662 356.336C69.4662 351.048 65.219 346.761 59.9798 346.761C54.7407 346.761 50.4935 351.048 50.4935 356.336C50.4935 361.624 54.7407 365.91 59.9798 365.91ZM59.9798 373.42C69.3281 373.42 76.9064 365.771 76.9064 356.336C76.9064 346.9 69.3281 339.251 59.9798 339.251C50.6315 339.251 43.0532 346.9 43.0532 356.336C43.0532 365.771 50.6315 373.42 59.9798 373.42ZM168.012 365.91C173.252 365.91 177.499 361.624 177.499 356.336C177.499 351.048 173.252 346.761 168.012 346.761C162.773 346.761 158.526 351.048 158.526 356.336C158.526 361.624 162.773 365.91 168.012 365.91ZM168.012 373.42C177.36 373.42 184.939 365.771 184.939 356.336C184.939 346.9 177.36 339.251 168.012 339.251C158.664 339.251 151.086 346.9 151.086 356.336C151.086 365.771 158.664 373.42 168.012 373.42Z" fill="white"/>
<path d="M0.197266 373.416H8.06155V354.518H28.7832V373.416H36.7098V326.486H28.7832V347.526H8.06155V326.486H0.197266V373.416ZM99.4251 339.085C95.3062 339.085 92.0607 340.471 90.313 344.187V339.463H83.2604V373.416H90.7498V354.203C90.7498 348.912 93.8702 345.888 98.4891 345.888H102.546V339.085H99.4251ZM106.964 334.99H114.454V326.486H106.964V334.99V334.99ZM106.964 373.416H114.454V339.463H106.964V373.416ZM118.794 373.416H146.382V366.613H128.906L146.32 345.636V339.463H119.606V346.266H136.458L118.794 367.243V373.416ZM206.345 338.707C202.163 338.707 198.669 340.408 196.796 343.557V339.463H189.743V373.416H197.233V353.258C197.233 348.66 200.104 345.699 204.41 345.699C208.655 345.699 211.525 348.66 211.525 353.258V373.416H219.015V351.368C219.015 343.935 213.835 338.707 206.345 338.707V338.707Z" fill="white"/>
</g>
<defs>
<clipPath id="clip0_101_9057">
<rect width="279.605" height="50.1644" fill="white" transform="translate(0.197266 324.835)"/>
</clipPath>
</defs>
</svg>
